<svg width="24" height="24" viewBox="0 0 24 24" fill="none" xmlns="http://www.w3.org/2000/svg">
<path d="M18 22H6C5.46957 22 4.96086 21.7893 4.58579 21.4142C4.21071 21.0391 4 20.5304 4 20V4C4 3.46957 4.21071 2.96086 4.58579 2.58579C4.96086 2.21072 5.46957 2 6 2H13C13.009 1.99883 13.018 1.99883 13.027 2H13.033C13.0424 2.00295 13.0522 2.00496 13.062 2.006C13.15 2.012 13.237 2.029 13.321 2.057H13.363C13.3815 2.06992 13.3988 2.0843 13.415 2.1C13.5239 2.14845 13.6232 2.2162 13.708 2.3L19.708 8.3C19.7918 8.38479 19.8596 8.48406 19.908 8.593C19.9167 8.61463 19.9244 8.63665 19.931 8.659L19.941 8.687C19.969 8.77 19.985 8.857 19.99 8.945C19.9909 8.95496 19.9932 8.96474 19.997 8.974V8.98C19.9986 8.98656 19.9996 8.99326 20 9V20C20 20.5304 19.7893 21.0391 19.4142 21.4142C19.0391 21.7893 18.5304 22 18 22ZM14.424 14V19H15.364V16.96H16.824V16.122H15.364V14.841H17V14H14.424ZM10.724 14V19H11.93C12.436 19.025 12.926 18.819 13.262 18.44C13.6069 17.9999 13.7797 17.4492 13.748 16.891V16.081C13.7713 15.5286 13.5936 14.9865 13.248 14.555C12.923 14.185 12.448 13.981 11.955 14H10.724V14ZM7 14V19H7.94V17.241H8.566C8.984 17.264 9.392 17.109 9.69 16.815C9.974 16.497 10.121 16.081 10.1 15.655C10.1186 15.2192 9.97135 14.7926 9.688 14.461C9.54958 14.3075 9.37889 14.1866 9.18818 14.1069C8.99747 14.0271 8.79148 13.9907 8.585 14H7ZM13 4V9H18L13 4ZM11.946 18.162H11.664V14.841H12.006C12.1255 14.834 12.2449 14.857 12.3532 14.908C12.4615 14.959 12.5553 15.0364 12.626 15.133C12.773 15.436 12.836 15.773 12.808 16.109V16.978C12.83 17.298 12.761 17.618 12.608 17.899C12.5273 17.9932 12.4248 18.0664 12.3095 18.1123C12.1941 18.1581 12.0694 18.1751 11.946 18.162V18.162ZM8.585 16.4H7.939V14.841H8.594C8.67444 14.8419 8.75334 14.8632 8.82331 14.9029C8.89327 14.9426 8.952 14.9994 8.994 15.068C9.102 15.247 9.154 15.453 9.144 15.662C9.15654 15.8565 9.1049 16.0497 8.997 16.212C8.94796 16.2735 8.8851 16.3227 8.81351 16.3553C8.74191 16.388 8.66362 16.4033 8.585 16.4Z" fill="white"/>
</svg>
