<svg width="24" height="24" viewBox="0 0 24 24" fill="none" xmlns="http://www.w3.org/2000/svg">
<path d="M11.7697 2C10.1864 2 6.26958 2.16667 4.18619 4.16672C2.68615 5.58343 2.1028 7.75015 2.01947 10.3336C1.85279 14.417 2.76949 17.0004 4.26953 18.3338C4.60287 18.5838 5.43622 19.2505 7.0196 19.7505V21.8339C7.0196 21.8339 7.0196 22.6672 7.51961 22.8339C7.60295 22.8339 7.68628 22.9172 7.76962 22.9172C8.26963 22.9172 8.68631 22.3339 9.26966 21.7505C9.76967 21.1672 10.1864 20.7505 10.4364 20.3338H12.2697C13.8531 20.3338 17.7699 20.1672 19.8533 18.1671C21.3533 16.6671 21.9367 14.5003 21.9367 11.7503C22.02 11.3336 22.02 10.8336 22.02 10.3336C21.9367 7.25014 21.02 5.16675 19.7699 4.00005C19.2699 3.58338 17.1032 2 12.4364 2H11.7697V2ZM11.6031 3.58338H12.3531C16.7699 3.58338 18.4366 5.00008 18.6032 5.16675C19.6033 6.00011 20.1866 7.83349 20.27 10.2502V10.5836C20.3533 11.0836 20.3533 11.5003 20.3533 11.7503C20.27 14.2503 19.7699 15.917 18.7699 17.0004C17.0199 18.5838 13.3531 18.6671 12.3531 18.6671H10.7697L9.43633 20.1672L8.60297 21.0838L8.4363 21.3338C8.26963 21.5005 8.01963 21.8339 7.85295 21.9172V18.1671C6.18624 17.7504 5.51956 17.1671 5.35289 17.0004C4.18619 16.0004 3.51951 13.5836 3.68618 10.3336V9.5002C3.85285 7.50015 4.35286 6.16678 5.18622 5.25009C6.93626 3.66671 10.603 3.58338 11.6031 3.58338V3.58338ZM11.5197 5.41676C11.103 5.41676 11.103 6.00011 11.5197 6.00011C14.6031 6.00011 17.2699 8.0835 17.2699 12.0003C17.2699 12.4169 17.8532 12.4169 17.8532 12.0003C17.8532 7.75015 15.0198 5.33342 11.5197 5.41676V5.41676ZM8.21713 6.18761C8.02831 6.16498 7.83812 6.21702 7.68712 6.33262C6.85376 6.74929 6.01957 7.58432 6.26958 8.50101C6.26958 8.50101 6.43625 9.25019 7.35294 10.8336C7.85295 11.5836 8.26963 12.2503 8.68631 12.7503C9.10299 13.3336 9.76967 14.0003 10.4364 14.5003C11.7697 15.5837 13.8531 16.6671 14.7698 16.9171C15.6032 17.1671 16.5199 16.3337 16.9365 15.5004C17.1032 15.167 17.0199 14.7503 16.6865 14.5003C16.1865 14.0003 15.3532 13.417 14.7698 13.0836C14.3531 12.8336 13.8531 13.0003 13.6864 13.2503L13.2698 13.7503C13.1031 14.0003 12.6864 14.0003 12.6864 14.0003C9.93634 13.2503 9.18632 10.4169 9.18632 10.4169C9.18632 10.4169 9.18632 10.0835 9.43633 9.83354L9.93634 9.41686C10.1864 9.25019 10.353 8.75018 10.103 8.3335C9.93634 8.0835 9.68634 7.58348 9.43633 7.33348C9.18632 7.00013 8.68631 6.41678 8.68631 6.41678C8.55987 6.29018 8.39472 6.2095 8.21713 6.18761V6.18761ZM12.1031 7.08347C11.6864 7.00013 11.6031 7.66682 12.0197 7.66682C14.3531 7.83349 15.6865 9.41686 15.6032 11.4169C15.5198 11.8336 16.1865 11.8336 16.1865 11.4169C16.2698 9.08352 14.7698 7.1668 12.1031 7.08347V7.08347ZM12.3531 8.66684C11.9364 8.58351 11.9364 9.25019 12.3531 9.25019C13.3531 9.25019 13.8531 9.83354 13.8531 10.8336C13.9365 11.2502 14.5198 11.2502 14.5198 10.8336C14.4365 9.5002 13.6864 8.66684 12.3531 8.66684Z" fill="white"/>
</svg>
